# xmcd
#
# Track frame offsets: 
#        150
#        41564
#        72051
#        91374
#        120973
#        164272
#        185851
#        218037
#        229360
#        244092
#        253228
#        265635
#
# Disc length: 3883 seconds
#
# Revision: 0
# Processed by: cddbd v1.5.2PL0 Copyright (c) Steve Scherf et al.
# Submitted via: ExactAudioCopy v0.99pb4
#
DISCID=a60f290c
DTITLE=арлазоров ян - все будет хорошо
DYEAR=2008
DGENRE=
TTITLE0=ферма
TTITLE1=вундеркинд
TTITLE2=все будет хорошо
TTITLE3=милиция
TTITLE4=леди
TTITLE5=розыгрыш
TTITLE6=рыжий
TTITLE7=каскадер
TTITLE8=старость
TTITLE9=когда женщина говорит
TTITLE10=пластика
TTITLE11=биология
EXTD=
EXTT0=
EXTT1=
EXTT2=
EXTT3=
EXTT4=
EXTT5=
EXTT6=
EXTT7=
EXTT8=
EXTT9=
EXTT10=
EXTT11=
PLAYORDER=
